<?xml version="1.0" encoding="utf-8"?>
<!-- Generator: Adobe Illustrator 17.0.0, SVG Export Plug-In . SVG Version: 6.00 Build 0)  -->
<!DOCTYPE svg PUBLIC "-//W3C//DTD SVG 1.1//EN" "http://www.w3.org/Graphics/SVG/1.1/DTD/svg11.dtd">
<svg version="1.1" id="icon" xmlns="http://www.w3.org/2000/svg" xmlns:xlink="http://www.w3.org/1999/xlink" x="0px" y="0px"
	 width="128px" height="128px" viewBox="0 0 128 128" enable-background="new 0 0 128 128" xml:space="preserve">
<ellipse opacity="0.5" fill="#B8CBCD" cx="62.167" cy="109.813" rx="47.667" ry="11.813"/>
<path fill="#F6E89A" d="M70.193,17.429c-0.051,0.299-0.106,0.599-0.183,0.899c-1.512,5.882-7.506,9.425-13.388,7.913
	c-5.882-1.512-9.424-7.506-7.912-13.388c0.077-0.3,0.173-0.589,0.271-0.876L37.4,9L18.64,81.995l44.376,11.406l18.761-72.996
	L70.193,17.429z"/>
<path fill="#8D4520" d="M61.183,105.252c-0.25,0-0.501-0.031-0.747-0.095L15.644,93.645c-1.604-0.412-2.571-2.048-2.158-3.652
	L34.417,8.556c0.198-0.771,0.694-1.431,1.379-1.836c0.685-0.406,1.503-0.521,2.273-0.323l11.583,2.978
	c0.811,0.208,1.497,0.746,1.895,1.483c0.396,0.737,0.468,1.606,0.195,2.398c-0.057,0.165-0.096,0.265-0.129,0.35
	c-0.528,2.064-0.223,4.215,0.864,6.054c1.086,1.839,2.824,3.144,4.893,3.676c0.656,0.169,1.329,0.254,1.997,0.254
	c3.647,0,6.829-2.471,7.738-6.008c0.012-0.085,0.025-0.191,0.055-0.361c0.143-0.825,0.624-1.553,1.327-2.008
	c0.704-0.456,1.566-0.594,2.376-0.387l11.996,3.084c1.604,0.413,2.571,2.048,2.158,3.652l-20.93,81.437
	c-0.198,0.771-0.693,1.431-1.379,1.836C62.243,105.11,61.715,105.252,61.183,105.252z M20.044,88.58L59.023,98.6L78.46,22.974
	l-6.34-1.63c-2.23,4.955-7.182,8.245-12.752,8.245c-1.173,0-2.348-0.149-3.492-0.443c-3.62-0.931-6.662-3.216-8.565-6.435
	c-1.489-2.52-2.14-5.375-1.906-8.234l-5.924-1.523L20.044,88.58z"/>
<rect x="25.905" y="38.572" transform="matrix(0.9685 0.2489 -0.2489 0.9685 18.0813 -9.4657)" fill="#FFFFFF" width="41.126" height="56.377"/>
<path fill="#8D4520" d="M33.675,35.542c-0.164,0-0.332-0.021-0.499-0.063l-2.421-0.622c-1.069-0.275-1.714-1.365-1.44-2.434
	c0.275-1.069,1.363-1.715,2.436-1.44l2.421,0.622c1.069,0.275,1.714,1.365,1.439,2.435C35.379,34.942,34.566,35.542,33.675,35.542z"
	/>
<path fill="#8D4520" d="M68.815,44.574c-0.164,0-0.332-0.021-0.499-0.063l-4.393-1.129c-1.069-0.275-1.714-1.365-1.439-2.435
	c0.275-1.068,1.363-1.716,2.436-1.439l4.393,1.129c1.069,0.275,1.714,1.365,1.44,2.435C70.519,43.974,69.707,44.574,68.815,44.574z
	 M60.03,42.316c-0.164,0-0.332-0.021-0.499-0.063l-4.393-1.129c-1.069-0.275-1.714-1.365-1.439-2.435
	c0.275-1.068,1.36-1.713,2.436-1.439l4.392,1.129c1.069,0.275,1.714,1.365,1.439,2.435C61.734,41.716,60.922,42.316,60.03,42.316z
	 M51.245,40.058c-0.164,0-0.332-0.021-0.499-0.064l-4.393-1.129c-1.069-0.275-1.714-1.365-1.439-2.435
	c0.275-1.068,1.361-1.714,2.436-1.439l4.393,1.129c1.069,0.275,1.714,1.365,1.439,2.435C52.949,39.458,52.137,40.058,51.245,40.058z
	 M42.46,37.8c-0.164,0-0.332-0.021-0.499-0.063l-4.393-1.129c-1.069-0.275-1.714-1.365-1.439-2.435
	c0.275-1.068,1.361-1.716,2.436-1.439l4.393,1.129c1.069,0.275,1.714,1.365,1.439,2.435C44.164,37.2,43.352,37.8,42.46,37.8z"/>
<path fill="#8D4520" d="M75.63,46.326c-0.164,0-0.332-0.021-0.499-0.063L72.71,45.64c-1.069-0.275-1.714-1.365-1.44-2.434
	c0.275-1.069,1.361-1.716,2.436-1.439l2.421,0.622c1.069,0.275,1.714,1.365,1.439,2.435C77.334,45.726,76.521,46.326,75.63,46.326z"
	/>
<path fill="#8D4520" d="M29.017,84.155c-0.164,0-0.332-0.02-0.499-0.063c-1.069-0.275-1.714-1.365-1.44-2.436l5.312-20.664
	c0.275-1.068,1.362-1.708,2.436-1.439c1.069,0.275,1.714,1.365,1.439,2.436l-5.312,20.664
	C30.721,83.556,29.908,84.155,29.017,84.155z"/>
<path fill="#8D4520" d="M37.16,86.248c-0.164,0-0.332-0.021-0.499-0.063c-1.069-0.275-1.714-1.365-1.439-2.436l2.729-10.618
	c0.275-1.068,1.362-1.709,2.436-1.439c1.069,0.275,1.714,1.365,1.439,2.436l-2.729,10.618C38.864,85.648,38.052,86.248,37.16,86.248
	z"/>
<path fill="#8D4520" d="M42.204,66.623c-0.164,0-0.332-0.021-0.499-0.063c-1.069-0.275-1.714-1.365-1.439-2.436l4.45-17.313
	c0.275-1.069,1.361-1.715,2.436-1.439c1.069,0.275,1.714,1.365,1.439,2.435l-4.45,17.314C43.908,66.023,43.096,66.623,42.204,66.623
	z"/>
<path fill="#8D4520" d="M35.72,58.036c-0.165,0-0.333-0.021-0.501-0.063c-1.069-0.276-1.713-1.366-1.437-2.437l2.795-10.831
	c0.275-1.069,1.363-1.715,2.437-1.437c1.069,0.276,1.713,1.367,1.437,2.436l-2.795,10.832C37.423,57.438,36.61,58.036,35.72,58.036z
	"/>
<path fill="#8D4520" d="M44.489,88.132c-0.164,0-0.332-0.021-0.499-0.063c-1.069-0.275-1.714-1.365-1.439-2.436l5.311-20.664
	c0.275-1.068,1.363-1.71,2.436-1.439c1.069,0.275,1.714,1.365,1.439,2.435L46.426,86.63C46.193,87.532,45.381,88.132,44.489,88.132z
	"/>
<path fill="#8D4520" d="M53.448,90.435c-0.164,0-0.332-0.021-0.499-0.063c-1.069-0.275-1.714-1.365-1.439-2.436l2.729-10.618
	c0.275-1.068,1.361-1.708,2.435-1.439c1.069,0.275,1.714,1.365,1.439,2.436l-2.728,10.618C55.152,89.835,54.34,90.435,53.448,90.435
	z"/>
<path fill="#8D4520" d="M58.492,70.81c-0.164,0-0.332-0.021-0.499-0.063c-1.069-0.275-1.714-1.365-1.439-2.436l4.45-17.314
	c0.275-1.068,1.36-1.709,2.436-1.44c1.069,0.275,1.714,1.365,1.439,2.436l-4.45,17.314C60.196,70.21,59.384,70.81,58.492,70.81z"/>
<path fill="#8D4520" d="M51.182,62.095c-0.164,0-0.332-0.021-0.499-0.063c-1.069-0.275-1.714-1.365-1.439-2.436l2.806-10.914
	c0.275-1.068,1.361-1.71,2.436-1.439c1.069,0.275,1.714,1.365,1.439,2.436l-2.806,10.914C52.886,61.495,52.073,62.095,51.182,62.095
	z"/>
<path fill="#B2EDA6" d="M113.104,51.7c-0.204,0.225-0.41,0.447-0.637,0.658c-4.432,4.152-11.391,3.926-15.543-0.506
	c-4.152-4.433-3.924-11.391,0.508-15.543c0.226-0.212,0.463-0.404,0.7-0.593l-8.178-8.728L34.953,78.516l31.326,33.438
	l55.001-51.526L113.104,51.7z"/>
<path fill="#3C663E" d="M59.983,121.438c-0.032,0-0.065-0.001-0.098-0.002c-0.796-0.025-1.548-0.366-2.092-0.947L26.176,86.738
	c-0.544-0.58-0.835-1.353-0.809-2.148c0.025-0.796,0.366-1.548,0.947-2.092l61.363-57.484c0.58-0.544,1.351-0.835,2.148-0.809
	c0.796,0.026,1.548,0.367,2.092,0.948l8.175,8.727c0.572,0.611,0.863,1.434,0.803,2.269c-0.061,0.835-0.469,1.607-1.123,2.129
	c-0.133,0.105-0.218,0.168-0.29,0.221c-3.217,3.016-3.382,8.086-0.368,11.304c1.528,1.631,3.601,2.528,5.837,2.528
	c2.037,0,3.979-0.768,5.466-2.161c0.055-0.063,0.124-0.146,0.239-0.273c0.563-0.62,1.36-0.976,2.198-0.982c0.007,0,0.015,0,0.023,0
	c0.829,0,1.622,0.344,2.189,0.949l8.469,9.04c1.133,1.209,1.07,3.107-0.139,4.24l-61.362,57.485
	C61.477,121.149,60.744,121.438,59.983,121.438z M32.605,84.826l27.517,29.372l56.983-53.384l-4.476-4.776
	c-2.264,1.489-4.92,2.292-7.678,2.292c-3.856,0-7.58-1.613-10.217-4.427c-4.717-5.035-4.985-12.664-0.963-17.995l-4.183-4.465
	L32.605,84.826z"/>
<rect x="46.05" y="52.406" transform="matrix(0.6837 0.7298 -0.7298 0.6837 79.8867 -23.1188)" fill="#FFFFFF" width="41.124" height="56.377"/>
<path fill="#3C663E" d="M73.642,47.697c-0.533,0-1.065-0.212-1.46-0.633l-1.709-1.824c-0.755-0.806-0.714-2.072,0.093-2.827
	c0.807-0.753,2.071-0.713,2.827,0.092l1.709,1.824c0.755,0.806,0.714,2.072-0.093,2.827C74.623,47.519,74.132,47.697,73.642,47.697z
	"/>
<path fill="#3C663E" d="M98.447,74.176c-0.533,0-1.065-0.212-1.46-0.633l-3.101-3.31c-0.755-0.806-0.714-2.071,0.093-2.827
	c0.806-0.754,2.07-0.715,2.827,0.093l3.101,3.31c0.755,0.806,0.714,2.071-0.093,2.827C99.429,73.997,98.937,74.176,98.447,74.176z
	 M92.246,67.556c-0.533,0-1.065-0.212-1.46-0.633l-3.101-3.31c-0.755-0.806-0.714-2.071,0.093-2.827
	c0.807-0.754,2.071-0.715,2.827,0.093l3.101,3.31c0.755,0.806,0.714,2.071-0.093,2.827C93.227,67.377,92.736,67.556,92.246,67.556z
	 M86.044,60.937c-0.533,0-1.065-0.212-1.46-0.633l-3.101-3.31c-0.755-0.806-0.714-2.071,0.093-2.827
	c0.806-0.754,2.07-0.714,2.827,0.093l3.101,3.31c0.755,0.806,0.714,2.071-0.093,2.827C87.025,60.758,86.534,60.937,86.044,60.937z
	 M79.843,54.316c-0.533,0-1.065-0.212-1.46-0.633l-3.101-3.31c-0.755-0.806-0.714-2.071,0.093-2.827
	c0.806-0.754,2.071-0.715,2.827,0.093l3.101,3.31c0.755,0.806,0.714,2.071-0.093,2.827C80.824,54.138,80.333,54.316,79.843,54.316z"
	/>
<path fill="#3C663E" d="M103.258,79.311c-0.533,0-1.065-0.212-1.46-0.633l-1.709-1.824c-0.755-0.806-0.714-2.071,0.093-2.827
	c0.806-0.754,2.07-0.714,2.827,0.093l1.709,1.824c0.755,0.806,0.714,2.071-0.093,2.827
	C104.239,79.132,103.748,79.311,103.258,79.311z"/>
<path fill="#3C663E" d="M43.624,86.22c-0.533,0-1.065-0.212-1.46-0.633c-0.755-0.806-0.714-2.071,0.093-2.827l15.571-14.586
	c0.806-0.754,2.07-0.715,2.827,0.093c0.755,0.806,0.714,2.071-0.093,2.827L44.991,85.68C44.605,86.041,44.114,86.22,43.624,86.22z"
	/>
<path fill="#3C663E" d="M49.373,92.354c-0.533,0-1.066-0.212-1.46-0.633c-0.755-0.806-0.714-2.072,0.093-2.827l8-7.493
	c0.807-0.754,2.071-0.715,2.827,0.093c0.755,0.806,0.714,2.072-0.093,2.827l-8,7.493C50.354,92.176,49.863,92.354,49.373,92.354z"/>
<path fill="#3C663E" d="M64.16,78.502c-0.533,0-1.066-0.213-1.46-0.633c-0.755-0.806-0.714-2.071,0.093-2.827L75.84,62.821
	c0.806-0.754,2.073-0.713,2.827,0.093c0.755,0.806,0.714,2.071-0.093,2.827L65.527,77.962C65.142,78.323,64.65,78.502,64.16,78.502z
	"/>
<path fill="#3C663E" d="M63.297,67.776c-0.534,0-1.067-0.213-1.461-0.634c-0.754-0.807-0.712-2.072,0.095-2.827l8.171-7.642
	c0.805-0.754,2.071-0.714,2.827,0.095c0.754,0.807,0.712,2.072-0.095,2.827l-8.171,7.642C64.277,67.598,63.787,67.776,63.297,67.776
	z"/>
<path fill="#3C663E" d="M54.548,97.878c-0.533,0-1.065-0.212-1.46-0.633c-0.755-0.806-0.714-2.071,0.093-2.827L68.75,79.832
	c0.807-0.754,2.07-0.715,2.827,0.093c0.755,0.806,0.714,2.071-0.093,2.827L55.915,97.338C55.529,97.699,55.038,97.878,54.548,97.878
	z"/>
<path fill="#3C663E" d="M60.87,104.628c-0.533,0-1.066-0.212-1.46-0.633c-0.755-0.806-0.714-2.072,0.093-2.827l8.001-7.494
	c0.806-0.754,2.07-0.715,2.827,0.093c0.755,0.806,0.714,2.072-0.093,2.827l-8.001,7.494C61.852,104.449,61.36,104.628,60.87,104.628
	z"/>
<path fill="#3C663E" d="M75.656,90.774c-0.533,0-1.066-0.212-1.46-0.633c-0.755-0.807-0.714-2.072,0.093-2.827l13.048-12.221
	c0.807-0.754,2.071-0.715,2.827,0.093c0.755,0.807,0.714,2.072-0.093,2.827L77.023,90.234
	C76.638,90.596,76.146,90.774,75.656,90.774z"/>
<path fill="#3C663E" d="M74.167,79.499c-0.533,0-1.065-0.212-1.459-0.633c-0.756-0.806-0.715-2.071,0.092-2.826l8.223-7.705
	c0.806-0.756,2.071-0.715,2.826,0.092c0.756,0.806,0.715,2.071-0.092,2.826l-8.223,7.705C75.148,79.32,74.657,79.499,74.167,79.499z
	"/>
</svg>
